#!OML:ASF F:\VICON\USERDATA\INSTALL\rory3\rory3.ASF
:FULLY-SPECIFIED
:DEGREES
3782
root 5.78318 18.6334 -0.992921 -504.837 76.174 205.003
lowerback 8.53794 1.79771 -4.26267
upperback 4.23423 2.40366 -6.84561
thorax -0.241486 1.38358 -4.93886
lowerneck -8.86078 8.39031 -3.49849
upperneck 22.2213 12.8057 0.85982
head 8.06257 6.04263 2.06211
rclavicle 1.74931e-014 5.08889e-014
rhumerus -0.0127162 39.8855 -85.0962
rradius 116.826
rwrist -15.0489
rhand -27.5054 16.3886
rfingers 7.12502
rthumb -0.908239 -13.5892
lclavicle 1.74931e-014 5.08889e-014
lhumerus 2.24188 -9.14169 83.565
lradius 49.3724
lwrist -6.8451
lhand -45.2608 19.0251
lfingers 7.12502
lthumb -18.0346 48.209
rfemur -9.06983 13.0467 26.7662
rtibia 22.7892
rfoot -21.6995 -19.0718
rtoes -1.47231
lfemur -33.846 -5.96693 -7.06973
ltibia 31.4712
lfoot -6.41203 4.91464
ltoes 0.198479
3783
root 5.81998 18.6343 -1.03822 -503.901 75.7747 205.715
lowerback 8.52159 1.69864 -4.07113
upperback 4.19528 2.27984 -6.84041
thorax -0.274093 1.3224 -5.03079
lowerneck -9.03257 8.43533 -3.69549
upperneck 22.182 12.9004 0.861494
head 8.06528 6.06832 2.10796
rclavicle -5.24792e-014 -3.81667e-014
rhumerus 0.0150075 39.948 -85.486
rradius 116.003
rwrist -14.4988
rhand -28.0446 16.5289
rfingers 7.12502
rthumb -1.42897 -13.446
lclavicle -5.24792e-014 -3.81667e-014
lhumerus 3.31594 -8.38649 83.47
lradius 47.9121
lwrist -6.91112
lhand -44.4491 17.6092
lfingers 7.12502
lthumb -17.2535 46.8633
rfemur -9.25006 13.0144 26.977
rtibia 22.8696
rfoot -21.6257 -19.0432
rtoes -1.63332
lfemur -34.1944 -5.95804 -6.81674
ltibia 31.7342
lfoot -6.51476 4.59718
ltoes 0.220865
3784
root 5.85838 18.6364 -1.07925 -502.412 75.6095 207.145
lowerback 8.63368 1.73471 -3.98895
upperback 4.15665 2.31777 -6.82216
thorax -0.372154 1.3409 -5.06713
lowerneck -9.11208 8.48958 -3.82542
upperneck 22.0601 12.9842 0.867226
head 8.0277 6.09816 2.13509
rclavicle -3.18055e-014 -1.59028e-014
rhumerus 0.0108569 39.9078 -85.9635
rradius 115.104
rwrist -14.0397
rhand -28.2185 16.6551
rfingers 7.12502
rthumb -1.59692 -13.3187
lclavicle -3.18055e-014 -1.59028e-014
lhumerus 4.33186 -7.58334 83.4598
lradius 46.3874
lwrist -7.22021
lhand -43.656 16.2609
lfingers 7.12502
lthumb -16.4901 45.5802
rfemur -9.28353 13.0936 27.236
rtibia 22.9936
rfoot -21.8577 -18.6492
rtoes -0.251133
lfemur -34.2787 -5.79825 -6.53364
ltibia 32.0151
lfoot -6.6978 4.37884
ltoes 0.0941313
3785
root 5.8965 18.6422 -1.12268 -501.295 75.5812 208.221
lowerback 8.76029 1.83514 -4.14211
upperback 4.136 2.42661 -6.79264
thorax -0.46396 1.39274 -4.96555
lowerneck -9.15043 8.53401 -3.95319
upperneck 21.9123 13.0528 0.859794
head 7.97551 6.12141 2.15289
rclavicle 3.18055e-015 -1.27222e-014
rhumerus 0.0669635 39.8579 -86.3108
rradius 114.191
rwrist -13.6985
rhand -28.2699 16.7799
rfingers 7.12502
rthumb -1.64656 -13.1935
lclavicle 3.18055e-015 -1.27222e-014
lhumerus 5.3647 -6.76511 83.6176
lradius 44.7824
lwrist -7.80708
lhand -42.9754 15.1906
lfingers 7.12502
lthumb -15.8347 44.5631
rfemur -9.30805 13.0437 27.3354
rtibia 23.1401
rfoot -21.5212 -18.363
rtoes -0.463731
lfemur -34.2934 -5.71375 -6.40329
ltibia 32.3202
lfoot -6.9706 4.29422
ltoes 0.000928822
3786
root 5.93223 18.6491 -1.16879 -500.252 75.4172 209.148
lowerback 8.82214 1.90071 -4.15795
upperback 4.08837 2.50126 -6.791
thorax -0.544249 1.42905 -4.96599
lowerneck -9.07734 8.56701 -3.90622
upperneck 21.73 13.1079 0.686061
head 7.91696 6.13874 2.0837
rclavicle -5.88403e-014 3.49861e-014
rhumerus 0.139688 39.8456 -86.5937
rradius 113.306
rwrist -13.4518
rhand -28.8767 17.2178
rfingers 7.12502
rthumb -2.23262 -12.7503
lclavicle -5.88403e-014 3.49861e-014
lhumerus 6.29272 -5.92402 83.8171
lradius 43.1959
lwrist -8.53258
lhand -42.1806 14.2561
lfingers 7.12502
lthumb -15.0691 43.6876
rfemur -9.43385 12.8586 27.4733
rtibia 23.343
rfoot -21.0208 -18.1456
rtoes -1.56937
lfemur -34.4394 -5.70451 -6.20833
ltibia 32.6198
lfoot -7.23342 4.1981
ltoes 0.177637
3787
root 5.9656 18.6519 -1.21621 -498.717 75.2704 210.548
lowerback 8.88742 1.9857 -4.02016
upperback 3.98221 2.60486 -6.81228
thorax -0.678836 1.48042 -5.08221
lowerneck -9.11643 8.58464 -3.8293
upperneck 21.7488 13.1433 0.609593
head 7.94061 6.15244 2.05443
rclavicle -2.70347e-014 -3.18055e-015
rhumerus 0.16754 39.8063 -86.929
rradius 112.447
rwrist -13.2293
rhand -29.3111 17.7125
rfingers 7.12502
rthumb -2.65215 -12.2507
lclavicle -2.70347e-014 -3.18055e-015
lhumerus 7.08597 -5.05032 84.0445
lradius 41.6174
lwrist -8.94117
lhand -41.6871 13.3265
lfingers 7.12502
lthumb -14.5937 42.7931
rfemur -9.65733 12.8236 27.6292
rtibia 23.641
rfoot -21.0774 -17.5717
rtoes -0.83941
lfemur -34.6025 -5.56748 -5.93387
ltibia 32.8842
lfoot -7.44249 4.1586
ltoes 0.13324
3788
root 5.9994 18.6524 -1.2611 -497.432 75.302 211.788
lowerback 9.04133 2.10605 -4.05794
upperback 3.90356 2.74198 -6.87104
thorax -0.835829 1.54945 -5.14703
lowerneck -9.18015 8.60169 -3.81708
upperneck 21.7298 13.1723 0.582394
head 7.94797 6.16308 2.04937
rclavicle -1.74931e-014 -4.13472e-014
rhumerus 0.241251 39.7836 -87.2943
rradius 111.58
rwrist -12.8422
rhand -29.4519 17.8822
rfingers 7.12502
rthumb -2.78818 -12.0793
lclavicle -1.74931e-014 -4.13472e-014
lhumerus 7.89144 -4.37459 84.1969
lradius 39.9472
lwrist -8.86924
lhand -41.5429 12.6519
lfingers 7.12502
lthumb -14.4547 42.1285
rfemur -9.83482 12.7501 27.6517
rtibia 23.9954
rfoot -20.7261 -17.0534
rtoes -1.88697
lfemur -34.5992 -5.28893 -5.85313
ltibia 33.1056
lfoot -7.64505 4.04614
ltoes 0.130573
3789
root 6.03421 18.6559 -1.30723 -496.681 75.3947 212.487
lowerback 9.13608 2.21601 -4.31242
upperback 3.86451 2.85692 -6.88445
thorax -0.93212 1.60506 -5.03569
lowerneck -9.11695 8.65299 -3.74345
upperneck 21.5378 13.2949 0.197723
head 7.90576 6.19352 1.91649
rclavicle 9.54166e-015 -3.49861e-014
rhumerus 0.403809 39.9404 -87.4342
rradius 110.726
rwrist -12.5925
rhand -29.5542 18.2478
rfingers 7.12502
rthumb -2.88689 -11.7124
lclavicle 9.54166e-015 -3.49861e-014
lhumerus 8.54356 -2.8727 84.8389
lradius 38.5314
lwrist -9.53806
lhand -41.0558 12.0391
lfingers 7.12502
lthumb -13.9854 41.5487
rfemur -9.97276 12.7035 27.5323
rtibia 24.3092
rfoot -20.0769 -16.8023
rtoes -4.64408
lfemur -34.5895 -5.13879 -5.93152
ltibia 33.3527
lfoot -7.88738 4.01969
ltoes -0.348415
3790
root 6.07177 18.6631 -1.34679 -495.575 75.6784 213.58
lowerback 9.24131 2.4452 -4.78044
upperback 3.79259 3.10648 -6.87796
thorax -1.07367 1.72548 -4.79956
lowerneck -9.41543 8.58188 -4.11812
upperneck 21.9944 13.2492 0.554879
head 8.0603 6.16375 2.11757
rclavicle 5.24792e-014 -1.08139e-013
rhumerus 0.566661 40.1632 -87.503
rradius 109.994
rwrist -12.5132
rhand -29.5392 18.5588
rfingers 7.12502
rthumb -2.87243 -11.4016
lclavicle 5.24792e-014 -1.08139e-013
lhumerus 9.0719 -1.91483 85.3061
lradius 37.1305
lwrist -9.7245
lhand -40.5431 11.7684
lfingers 7.12502
lthumb -13.4913 41.3114
rfemur -10.0725 12.9592 27.3583
rtibia 24.6142
rfoot -19.677 -16.4389
rtoes -5.94299
lfemur -34.4718 -5.04353 -5.9806
ltibia 33.6172
lfoot -8.33688 4.26498
ltoes -0.433315
3791
root 6.11275 18.6657 -1.37528 -492.701 75.8433 216.64
lowerback 9.42836 2.75442 -4.90496
upperback 3.70951 3.47314 -6.78706
thorax -1.25855 1.90326 -4.68618
lowerneck -9.37074 8.60409 -4.22258
upperneck 22.0217 13.3092 0.54028
head 8.05463 6.184 2.13224
rclavicle -3.65764e-014 3.18055e-014
rhumerus 0.681422 40.3161 -87.7412
rradius 109.367
rwrist -12.5521
rhand -29.0314 18.8133
rfingers 7.12502
rthumb -2.38202 -11.1531
lclavicle -3.65764e-014 3.18055e-014
lhumerus 9.44989 -1.11432 85.6903
lradius 35.8418
lwrist -9.69922
lhand -40.2736 11.7313
lfingers 7.12502
lthumb -13.2315 41.2914
rfemur -10.0927 13.3899 27.7109
rtibia 25.0637
rfoot -19.3333 -16.0249
rtoes -6.71369
lfemur -34.0994 -4.63757 -5.55167
ltibia 33.7871
lfoot -8.75783 4.39745
ltoes -0.00808202
3792
root 6.14947 18.6644 -1.41667 -490.449 75.6948 218.965
lowerback 9.51327 2.89748 -4.6592
upperback 3.66347 3.66518 -6.73427
thorax -1.33463 1.99725 -4.79539
lowerneck -9.39401 8.60881 -4.23912
upperneck 22.0193 13.3603 0.37698
head 8.06933 6.1902 2.08923
rclavicle -6.36111e-015 3.18055e-014
rhumerus 0.868448 40.4029 -87.9913
rradius 108.957
rwrist -12.6982
rhand -28.4732 18.8296
rfingers 7.12502
rthumb -1.84294 -11.1422
lclavicle -6.36111e-015 3.18055e-014
lhumerus 9.67795 -0.341035 85.9974
lradius 34.8566
lwrist -9.76099
lhand -40.4116 11.3203
lfingers 7.12502
lthumb -13.3645 40.8717
rfemur -10.1591 13.4115 28.0632
rtibia 25.3837
rfoot -19.0787 -15.4012
rtoes -6.73342
lfemur -34.0261 -4.48779 -5.0753
ltibia 34.0839
lfoot -9.0544 4.37871
ltoes 0.661306
3793
root 6.17625 18.6739 -1.49061 -492.221 76.2651 216.711
lowerback 9.27652 2.91719 -5.32164
upperback 3.57227 3.664 -7.06447
thorax -1.31325 2.00329 -4.76395
lowerneck -9.45613 8.60504 -4.36116
upperneck 22.045 13.4035 0.29526
head 8.0871 6.19119 2.09023
rclavicle -1.90833e-014 3.49861e-014
rhumerus 1.11286 40.4781 -88.064
rradius 108.828
rwrist -12.8263
rhand -28.2499 18.6449
rfingers 7.12502
rthumb -1.6273 -11.3286
lclavicle -1.90833e-014 3.49861e-014
lhumerus 9.72149 0.12313 86.2555
lradius 34.2432
lwrist -9.88425
lhand -40.9187 11.0029
lfingers 7.12502
lthumb -13.8533 40.5215
rfemur -10.7758 12.8282 26.746
rtibia 25.7989
rfoot -18.9043 -14.4021
rtoes -6.96579
lfemur -34.4086 -4.98469 -6.05168
ltibia 34.2965
lfoot -9.28341 4.72426
ltoes 0.999585
3794
root 6.21132 18.6626 -1.54188 -489.194 75.6333 219.886
lowerback 9.39014 2.99133 -4.4978
upperback 3.55664 3.80003 -6.78836
thorax -1.35863 2.06386 -4.95323
lowerneck -9.47598 8.70034 -4.32726
upperneck 22.1545 13.6089 0.0498539
head 8.14615 6.26302 2.03194
rclavicle -3.18055e-014 -4.45278e-014
rhumerus 1.2529 40.7139 -88.0402
rradius 108.95
rwrist -12.8554
rhand -28.1433 18.3634
rfingers 7.12502
rthumb -1.52432 -11.6109
lclavicle -3.18055e-014 -4.45278e-014
lhumerus 9.52578 0.166632 86.3882
lradius 33.9236
lwrist -9.8698
lhand -41.4074 10.8495
lfingers 7.12502
lthumb -14.3242 40.3354
rfemur -10.9557 12.7065 27.6534
rtibia 26.4172
rfoot -18.6101 -14.0449
rtoes -8.27166
lfemur -34.2892 -4.972 -5.06778
ltibia 34.4097
lfoot -9.3187 4.73076
ltoes 0.93456
3795
root 6.25191 18.6696 -1.58637 -488.289 75.9075 220.713
lowerback 9.33555 3.19718 -4.85572
upperback 3.49907 4.04165 -6.80695
thorax -1.39729 2.18197 -4.79715
lowerneck -9.50175 8.77763 -4.27524
upperneck 22.2398 13.7896 -0.216718
head 8.20233 6.32278 1.96178
rclavicle 4.77083e-015 4.77083e-014
rhumerus 1.31454 40.7871 -88.0514
rradius 109.211
rwrist -12.7723
rhand -27.877 17.9435
rfingers 7.12502
rthumb -1.26711 -12.0325
lclavicle 4.77083e-015 4.77083e-014
lhumerus 9.1388 -0.598007 86.2717
lradius 33.9572
lwrist -9.2186
lhand -42.0691 11.0507
lfingers 7.12502
lthumb -14.9617 40.4903
rfemur -11.348 12.6687 27.3797
rtibia 27.1092
rfoot -18.3003 -13.624
rtoes -9.47847
lfemur -34.1292 -4.81354 -5.2679
ltibia 34.4175
lfoot -9.42919 4.78861
ltoes 1.06145
3796
root 6.28927 18.6886 -1.63864 -490.049 77.133 218.511
lowerback 9.0277 3.41683 -6.32757
upperback 3.37502 4.24859 -7.16983
thorax -1.41449 2.29011 -4.37008
lowerneck -9.63568 8.83062 -4.39319
upperneck 22.4109 13.9332 -0.278708
head 8.27937 6.36748 1.98794
rclavicle -2.8625e-014 8.90555e-014
rhumerus 1.48164 40.8837 -88.0047
rradius 109.519
rwrist -12.8184
rhand -27.5108 17.1993
rfingers 7.12502
rthumb -0.913429 -12.7785
lclavicle -2.8625e-014 8.90555e-014
lhumerus 8.59235 -1.58165 86.0892
lradius 34.3624
lwrist -7.89369
lhand -42.4974 11.0472
lfingers 7.12502
lthumb -15.3743 40.4556
rfemur -11.9675 12.4676 25.6534
rtibia 27.6935
rfoot -18.1211 -12.7332
rtoes -9.5653
lfemur -34.1714 -4.55603 -6.83702
ltibia 34.4614
lfoot -9.67039 4.90668
ltoes 0.770226
